#!OML:ASF H:\Terrain\Patient Classification 1\Walking\liu\liu.ASF
:FULLY-SPECIFIED
:DEGREES
178
root 8.114060 16.721201 -12.254100 7.877180 6.631190 -1.805560
lowerback -2.285070 0.230904 0.057898
upperback -0.177032 0.266988 1.730270
thorax 1.083650 0.127445 1.768415
lowerneck -10.359800 -4.113280 -7.527800
upperneck 7.307650 -4.972375 7.724150
head 4.812805 -1.982600 3.204275
rclavicle 0.000000 0.000000
rhumerus -19.093349 5.745850 -39.490601
rradius 20.680250
rwrist -10.583300
rhand -15.156300 -12.709300
rfingers 3.562510
rthumb -1.809690 -27.683800
lclavicle 0.000000 0.000000
lhumerus -22.503500 -6.425750 48.203300
lradius 16.306549
lwrist 8.749100
lhand -6.318950 -12.816050
lfingers 3.562510
lthumb 6.721100 1.957100
rfemur -10.229800 1.435180 13.191450
rtibia 13.824200
rfoot -8.710550 0.960255
rtoes -8.496950
lfemur -13.134150 4.098410 -9.070900
ltibia 31.287399
lfoot -4.961955 5.255750
ltoes -3.694375
179
root 8.109530 16.713100 -12.135900 7.854280 6.455840 -2.058760
lowerback -2.284290 0.201459 0.153202
upperback -0.218789 0.223879 1.742130
thorax 1.043465 0.107331 1.723690
lowerneck -10.089050 -3.921190 -7.384850
upperneck 7.215200 -4.772900 7.722750
head 4.691530 -1.894575 3.214820
rclavicle -0.000000 -0.000000
rhumerus -18.805849 5.729650 -39.528000
rradius 20.745251
rwrist -10.494950
rhand -15.173650 -12.664750
rfingers 3.562510
rthumb -1.826415 -27.639000
lclavicle -0.000000 -0.000000
lhumerus -22.668200 -5.876600 47.905350
lradius 16.387400
lwrist 8.540400
lhand -6.329900 -12.682400
lfingers 3.562510
lthumb 6.710600 2.091440
rfemur -10.033050 1.572320 13.368950
rtibia 13.870150
rfoot -8.838250 0.956025
rtoes -8.060450
lfemur -13.778650 4.084100 -9.065400
ltibia 31.190651
lfoot -5.474250 5.330250
ltoes -3.503685
180
root 8.104840 16.699100 -12.015400 7.788990 6.365120 -2.196510
lowerback -2.266305 0.042649 0.120254
upperback -0.281588 0.016355 1.715850
thorax 0.980650 0.004244 1.701465
lowerneck -9.878400 -3.560760 -6.761350
upperneck 7.270700 -4.423980 7.433300
head 4.567570 -1.732620 3.064310
rclavicle 0.000000 0.000000
rhumerus -18.618200 5.939400 -39.790852
rradius 20.879101
rwrist -10.386950
rhand -15.203450 -12.438150
rfingers 3.562510
rthumb -1.855195 -27.411850
lclavicle 0.000000 0.000000
lhumerus -22.882601 -5.202550 47.416649
lradius 16.476601
lwrist 8.659350
lhand -6.133250 -12.410800
lfingers 3.562510
lthumb 6.900050 2.350325
rfemur -9.814050 1.735420 13.501250
rtibia 13.908700
rfoot -9.078000 0.791025
rtoes -7.836700
lfemur -14.377650 4.005680 -9.106850
ltibia 31.024250
lfoot -5.967900 5.325100
ltoes -1.718285
181
root 8.106370 16.691700 -11.888300 7.702270 6.156650 -2.157910
lowerback -2.358240 0.406325 0.240499
upperback -0.135979 0.488792 1.720645
thorax 1.156720 0.239259 1.671250
lowerneck -9.878950 -3.986855 -7.564600
upperneck 7.147500 -4.847035 7.785600
head 4.656780 -1.942865 3.256430
rclavicle -0.000000 -0.000000
rhumerus -18.329901 5.060400 -39.067200
rradius 21.106600
rwrist -10.422800
rhand -15.170300 -12.134700
rfingers 3.562510
rthumb -1.823195 -27.108950
lclavicle -0.000000 -0.000000
lhumerus -22.575899 -5.736400 47.824600
lradius 16.409300
lwrist 8.727950
lhand -6.644800 -12.280900
lfingers 3.562510
lthumb 6.407050 2.512440
rfemur -9.541650 1.844400 13.519750
rtibia 13.964550
rfoot -9.262750 0.750965
rtoes -7.374750
lfemur -14.859350 3.919125 -9.265000
ltibia 30.755051
lfoot -6.340800 5.473450
ltoes -2.003880
182
root 8.105320 16.689100 -11.766100 7.782760 5.919900 -2.221690
lowerback -2.104250 0.497894 0.337227
upperback -1.071140 0.645575 1.692115
thorax 0.047330 0.330732 1.577300
lowerneck -6.767900 -3.546975 -8.092550
upperneck 6.564400 -4.557565 8.151100
head 3.903285 -1.944895 3.553600
rclavicle -0.000000 0.000000
rhumerus -20.361650 5.207400 -39.248852
rradius 21.834000
rwrist -10.608400
rhand -15.248450 -12.453600
rfingers 3.562510
rthumb -1.898660 -27.426550
lclavicle -0.000000 0.000000
lhumerus -24.648149 -5.519000 48.156700
lradius 16.645201
lwrist 8.421100
lhand -7.404300 -12.600200
lfingers 3.562510
lthumb 5.674700 2.236225
rfemur -9.386600 1.993805 13.587300
rtibia 14.057150
rfoot -9.462800 0.697600
rtoes -7.073200
lfemur -15.439050 3.908515 -9.369600
ltibia 30.416250
lfoot -6.336100 5.740150
ltoes -3.966755
183
root 8.106620 16.671900 -11.645600 7.776650 5.767210 -2.214550
lowerback -2.011705 0.542530 0.326419
upperback -1.268280 0.714965 1.677825
thorax -0.210381 0.368093 1.566880
lowerneck -6.027850 -3.427910 -8.164050
upperneck 6.376100 -4.477875 8.223200
head 3.702750 -1.939125 3.610415
rclavicle 0.000000 -0.000000
rhumerus -20.848450 5.206750 -39.224251
rradius 22.409500
rwrist -10.807850
rhand -15.450300 -12.696300
rfingers 3.562510
rthumb -2.093590 -27.665550
lclavicle 0.000000 -0.000000
lhumerus -25.053301 -5.527050 48.278198
lradius 16.566099
lwrist 8.494450
lhand -7.677900 -12.966950
lfingers 3.562510
lthumb 5.410800 1.883630
rfemur -9.191700 2.072000 13.630100
rtibia 14.148550
rfoot -9.596800 0.638965
rtoes -7.231150
lfemur -15.970600 3.892520 -9.488500
ltibia 30.052900
lfoot -6.352600 5.856000
ltoes -3.865165
184
root 8.111060 16.651501 -11.518500 7.533530 5.670250 -2.055230
lowerback -1.995800 0.561590 0.214128
upperback -1.010145 0.735820 1.650205
thorax 0.042988 0.376199 1.605135
lowerneck -6.558550 -3.497145 -7.948500
upperneck 6.369850 -4.518315 8.110900
head 3.786915 -1.932305 3.518530
rclavicle -0.000000 -0.000000
rhumerus -20.134199 4.946880 -39.064751
rradius 22.470301
rwrist -10.831300
rhand -15.658200 -12.621550
rfingers 3.562510
rthumb -2.294340 -27.586700
lclavicle -0.000000 -0.000000
lhumerus -24.552299 -5.514650 48.178551
lradius 16.395550
lwrist 8.662950
lhand -7.774000 -12.292250
lfingers 3.562510
lthumb 5.318100 2.563180
rfemur -8.815700 2.089735 13.593350
rtibia 14.196500
rfoot -9.714200 0.607285
rtoes -7.093050
lfemur -16.312750 3.828695 -9.697150
ltibia 29.662849
lfoot -6.385200 6.002250
ltoes -1.450840
185
root 8.109080 16.642300 -11.393000 7.498930 5.545910 -2.194750
lowerback -2.102095 0.584055 0.249221
upperback -0.768560 0.753955 1.642395
thorax 0.350732 0.381510 1.584150
lowerneck -7.286900 -3.578845 -7.694250
upperneck 6.521300 -4.578915 7.994600
head 3.958145 -1.923965 3.416660
rclavicle 0.000000 -0.000000
rhumerus -19.313801 4.638690 -38.959850
rradius 22.440599
rwrist -10.827300
rhand -15.694950 -12.592100
rfingers 3.562510
rthumb -2.329830 -27.556499
lclavicle 0.000000 -0.000000
lhumerus -24.139999 -5.326400 47.938400
lradius 16.336451
lwrist 8.334600
lhand -8.014800 -11.828600
lfingers 3.562510
lthumb 5.085800 3.038435
rfemur -8.541050 2.190510 13.723600
rtibia 14.188200
rfoot -9.974150 0.493593
rtoes -6.960500
lfemur -16.795799 3.830635 -9.780950
ltibia 29.247400
lfoot -5.903450 6.452550
ltoes 1.809900
186
root 8.109420 16.642900 -11.263100 7.545030 5.290500 -2.328240
lowerback -2.365800 0.566925 0.268218
upperback -0.234256 0.707150 1.597250
thorax 1.051570 0.350305 1.540085
lowerneck -9.195550 -3.706485 -7.116850
upperneck 7.035650 -4.658055 7.770400
head 4.441820 -1.861400 3.211540
rclavicle 0.000000 0.000000
rhumerus -17.956499 4.427110 -38.970650
rradius 22.477449
rwrist -10.954000
rhand -15.850150 -12.707800
rfingers 3.562510
rthumb -2.479655 -27.668751
lclavicle 0.000000 0.000000
lhumerus -23.071400 -5.418450 47.608299
lradius 16.158951
lwrist 8.328400
lhand -8.169400 -12.084200
lfingers 3.562510
lthumb 4.936670 2.790070
rfemur -8.251550 2.199015 13.844750
rtibia 14.091500
rfoot -10.159200 0.588270
rtoes -6.723250
lfemur -17.268999 3.780515 -9.816400
ltibia 28.733801
lfoot -7.739850 6.113250
ltoes -4.089720
187
root 8.115710 16.648800 -11.133600 7.396810 5.120380 -2.227720
lowerback -2.064300 0.721620 0.339583
upperback -0.970970 0.941865 1.596870
thorax 0.116521 0.477562 1.489945
lowerneck -6.587200 -3.474240 -7.937400
upperneck 6.542650 -4.515025 8.170200
head 3.849735 -1.923215 3.542275
rclavicle -0.000000 -0.000000
rhumerus -19.530149 4.358985 -38.887901
rradius 22.878450
rwrist -11.217700
rhand -16.471951 -13.199350
rfingers 3.562510
rthumb -3.080010 -28.144600
lclavicle -0.000000 -0.000000
lhumerus -24.726999 -5.733800 48.305199
lradius 16.227850
lwrist 8.499900
lhand -7.982300 -11.912250
lfingers 3.562510
lthumb 5.117150 2.953290
rfemur -7.794350 2.140960 13.828200
rtibia 13.884250
rfoot -10.214700 0.727840
rtoes -6.526900
lfemur -17.565250 3.547760 -9.896350
ltibia 28.098200
lfoot -7.816500 6.071550
ltoes -3.144660
188
root 8.118740 16.652300 -11.013500 7.265260 5.023240 -2.348710
lowerback -2.131170 0.682790 0.354410
upperback -0.398058 0.869065 1.577775
thorax 0.746960 0.434538 1.471040
lowerneck -8.504650 -3.681240 -7.275850
upperneck 6.922300 -4.655355 7.754000
head 4.286445 -1.901455 3.239020
rclavicle -0.000000 -0.000000
rhumerus -18.038851 4.153605 -38.868401
rradius 22.754150
rwrist -11.336100
rhand -16.892349 -13.177200
rfingers 3.562510
rthumb -3.485855 -28.109751
lclavicle -0.000000 -0.000000
lhumerus -23.521650 -5.585350 47.835949
lradius 16.072201
lwrist 8.366950
lhand -7.687450 -11.659900
lfingers 3.562510
lthumb 5.401550 3.191180
rfemur -7.377600 2.172160 13.934750
rtibia 13.621950
rfoot -10.301150 0.708555
rtoes -6.602750
lfemur -17.900499 3.375410 -9.876100
ltibia 27.399050
lfoot -7.465600 6.308550
ltoes -3.048315
189
root 8.118100 16.656900 -10.886200 7.161050 4.750180 -2.511470
lowerback -2.234470 0.760840 0.422983
upperback -0.014695 0.954815 1.573980
thorax 1.197745 0.473574 1.445120
lowerneck -9.722750 -3.872005 -6.994500
upperneck 7.239150 -4.819875 7.488200
head 4.607045 -1.931625 3.059505
rclavicle -0.000000 0.000000
rhumerus -17.103701 3.726305 -38.716450
rradius 22.830549
rwrist -11.329350
rhand -16.876801 -13.263550
rfingers 3.562510
rthumb -3.470880 -28.196650
lclavicle -0.000000 0.000000
lhumerus -22.726801 -5.403750 47.546101
lradius 15.825600
lwrist 7.854200
lhand -7.685100 -11.787450
lfingers 3.562510
lthumb 5.403800 3.063520
rfemur -6.981700 2.151725 14.062700
rtibia 13.376000
rfoot -10.356950 0.858380
rtoes -6.399150
lfemur -18.213449 3.374500 -9.851950
ltibia 26.663700
lfoot -7.363700 6.000250
ltoes -2.229765
190
root 8.120970 16.659500 -10.757000 7.033250 4.522350 -2.469890
lowerback -2.266080 0.812350 0.382102
upperback 0.119594 1.020710 1.570395
thorax 1.349760 0.504445 1.473045
lowerneck -9.961350 -3.926340 -7.075800
upperneck 7.191200 -4.855900 7.584700
head 4.649585 -1.934055 3.098340
rclavicle 0.000000 0.000000
rhumerus -16.782249 3.528515 -38.644550
rradius 23.037251
rwrist -11.440900
rhand -16.900351 -13.956650
rfingers 3.562510
rthumb -3.493605 -28.889000
lclavicle 0.000000 0.000000
lhumerus -22.536051 -5.238650 47.451649
lradius 15.695450
lwrist 7.482650
lhand -7.645850 -11.888950
lfingers 3.562510
lthumb 5.441700 2.960045
rfemur -6.543950 2.127065 14.074650
rtibia 13.136950
rfoot -10.533200 0.839895
rtoes -7.795200
lfemur -18.456301 3.314080 -9.922150
ltibia 25.915150
lfoot -7.505900 5.559800
ltoes -2.217955
191
root 8.125900 16.648001 -10.637300 7.021830 4.520650 -2.502930
lowerback -2.205265 0.770875 0.351660
upperback -0.029822 0.972555 1.601180
thorax 1.161705 0.481816 1.513120
lowerneck -9.277650 -3.785605 -7.268700
upperneck 6.887250 -4.709140 7.823050
head 4.425865 -1.886830 3.243420
rclavicle 0.000000 0.000000
rhumerus -16.897200 3.659560 -38.703449
rradius 23.135401
rwrist -11.549450
rhand -16.811300 -13.450050
rfingers 3.562510
rthumb -3.407630 -28.385201
lclavicle 0.000000 0.000000
lhumerus -22.888250 -5.146100 47.536751
lradius 15.623500
lwrist 7.425900
lhand -7.354700 -12.087300
lfingers 3.562510
lthumb 5.722500 2.746485
rfemur -6.171500 2.253605 14.139750
rtibia 12.875900
rfoot -10.690050 0.596935
rtoes -8.999400
lfemur -18.780500 3.180150 -9.963750
ltibia 25.139050
lfoot -7.738250 5.361900
ltoes -2.851405
